# xmcd
#
# Track frame offsets:
#	150
#	18747
#	36402
#	54665
#	70405
#	83140
#	100777
#	115312
#	128907
#
# Disc length: 1931 seconds
#
# Revision: 0
# Processed by: cddbd v1.4PL0 Copyright (c) Steve Scherf et al.
# Submitted via: EasyCDDAExtractor 4.6.0.1
#
DISCID=7d078909
DTITLE=Patrick Chene - On My Way
DYEAR=2001
DGENRE=Country
TTITLE0=Eazy Come, Eaza Go
TTITLE1=Honest I Do
TTITLE2=Pain In My Past
TTITLE3=Why Don't You Give Up
TTITLE4=On My Way
TTITLE5=I Hope Thats How You Wanted It To Be
TTITLE6=Where Are You Now
TTITLE7=Mamma Said
TTITLE8=It Might Hurt When I Fall
EXTD=
EXTT0=
EXTT1=
EXTT2=
EXTT3=
EXTT4=
EXTT5=
EXTT6=
EXTT7=
EXTT8=
PLAYORDER=
